<svg xmlns="http://www.w3.org/2000/svg" width="104" height="112" viewBox="0 0 104 112">
    <g fill="none" fill-rule="evenodd">
        <path fill="#F5F5F5" d="M103.307 105.088L96.593 4.367C96.229 1.826 94.415.01 92.056.01H11.479c-2.36 0-4.174 1.815-4.537 4.356L.045 105.632c-.181 1.453.182 2.904 1.09 3.993.906 1.088 2.177 1.815 3.447 1.815h94.37c2.54 0 4.537-2.36 4.537-5.082 0-.544 0-.907-.182-1.27z"/>
        <path fill="#E3E3E3" d="M98.952 111.44c2.54 0 4.537-2.36 4.537-5.082 0-.544 0-.907-.182-1.27L96.593 4.367C96.229 1.826 94.415.01 92.056.01H11.479c-2.36 0-4.174 1.815-4.537 4.356"/>
        <path fill="#DDD" d="M51.767 58.992c-17.967 0-32.485-22.322-32.485-40.288a3.254 3.254 0 0 1 3.267-3.267 3.253 3.253 0 0 1 3.266 3.267c0 14.337 11.615 25.952 25.952 25.952 14.337 0 25.951-11.615 25.951-25.952a3.254 3.254 0 0 1 3.268-3.267 3.254 3.254 0 0 1 3.266 3.267c0 17.785-14.518 40.288-32.485 40.288z"/>
        <path fill="#FF7300" d="M25.815 18.704a3.253 3.253 0 0 0-3.266-3.267 3.254 3.254 0 0 0-3.267 3.267v.18l8.53 9.983a26.727 26.727 0 0 1-1.997-10.163z"/>
        <path fill="#DDD" d="M84.252 18.704a3.254 3.254 0 0 0-3.266-3.267 3.254 3.254 0 0 0-3.268 3.267c0 14.337-11.614 25.952-25.951 25.952-5.081 0-9.8-1.453-13.792-3.994L53.582 58.81c17.06-1.452 30.67-22.866 30.67-40.106z"/>
        <path fill="#FAFAFA" d="M51.767 51.007c-17.967 0-32.485-14.518-32.485-32.484a3.253 3.253 0 0 1 3.267-3.267 3.252 3.252 0 0 1 3.266 3.267c0 14.336 11.615 25.951 25.952 25.951 14.337 0 25.951-11.615 25.951-25.951a3.253 3.253 0 0 1 3.268-3.267 3.253 3.253 0 0 1 3.266 3.267c0 17.966-14.518 32.484-32.485 32.484z"/>
        <path fill="#F0F0F0" d="M80.986 15.437a3.254 3.254 0 0 0-3.268 3.267c0 10.525-6.351 19.6-15.425 23.592 11.07-3.811 19.418-13.429 21.414-25.407-.544-.907-1.633-1.452-2.721-1.452zM25.815 18.704a3.253 3.253 0 0 0-3.266-3.267c-1.27 0-2.178.726-2.722 1.633 1.996 11.797 10.343 21.415 21.414 25.408-9.073-4.175-15.426-13.249-15.426-23.774z"/>
        <path fill="#E3E3E3" d="M.045 105.632c-.181 1.453.182 2.904 1.09 3.993.906 1.088 2.177 1.815 3.447 1.815h94.37c2.54 0 4.537-2.36 4.537-5.082 0-.544 0-.907-.182-1.27"/>
    </g>
</svg>
